<mxfile host="app.diagrams.net" modified="2024-02-02T14:57:23.300Z" agent="Mozilla/5.0 (Macintosh; Intel Mac OS X 10_15_7) AppleWebKit/537.36 (KHTML, like Gecko) Chrome/120.0.0.0 Safari/537.36" etag="vfutyUUa8filPEFzQ47n" version="23.1.1" type="github">
  <diagram name="페이지-1" id="0AODR_6WuF6lGuICelWl">
    <mxGraphModel dx="1434" dy="677" grid="1" gridSize="10" guides="1" tooltips="1" connect="1" arrows="1" fold="1" page="1" pageScale="1" pageWidth="827" pageHeight="1169" math="0" shadow="0">
      <root>
        <mxCell id="0" />
        <mxCell id="1" parent="0" />
      </root>
    </mxGraphModel>
  </diagram>
</mxfile>
